<svg width="22" height="16" viewBox="0 0 22 16" fill="none" xmlns="http://www.w3.org/2000/svg">
<path d="M21.8346 12.8718C21.8346 14.1642 20.7781 15.2121 19.475 15.2121H2.95797C1.65489 15.2121 0.598389 14.1642 0.598389 12.8718V2.34032C0.598389 1.04788 1.65489 0 2.95797 0H19.475C20.7781 0 21.8346 1.04788 21.8346 2.34032V12.8718Z" fill="#75AADB"/>
<path d="M0.598389 4.6806H21.8346V10.5314H0.598389V4.6806Z" fill="#EEEEEE"/>
<path d="M11.2163 4.6806L11.5042 6.17139L12.3454 4.90352L12.0357 6.38962L13.3016 5.53716L12.4421 6.79333L13.941 6.48674L12.6627 7.32048L14.1658 7.606L12.6627 7.89152L13.941 8.72585L12.4421 8.41868L13.3016 9.67426L12.0357 8.8218L12.3454 10.3085L11.5042 9.04062L11.2163 10.5314L10.9285 9.04062L10.0879 10.3085L10.397 8.8218L9.13045 9.67426L9.98993 8.41868L8.4916 8.72585L9.7699 7.89152L8.26685 7.606L9.7699 7.32048L8.4916 6.48674L9.98993 6.79333L9.13045 5.53716L10.397 6.38962L10.0879 4.90352L10.9285 6.17139L11.2163 4.6806Z" fill="#FCBF49"/>
<path d="M11.2163 5.45876L11.3591 6.19889L11.4275 6.55286L11.6275 6.25213L12.0451 5.62258L11.8912 6.36037L11.8174 6.71376L12.1183 6.51132L12.7471 6.08831L12.3206 6.712L12.1165 7.01039L12.4722 6.93726L13.2167 6.78514L12.5819 7.19937L12.2781 7.39654L12.635 7.46441L13.3812 7.606L12.635 7.74759L12.2781 7.81546L12.5813 8.0138L13.2161 8.42804L12.4716 8.27533L12.1153 8.2022L12.3194 8.50059L12.7459 9.1237L12.1177 8.70069L11.8168 8.49825L11.8906 8.85164L12.0445 9.59001L11.6269 8.96046L11.4275 8.65915L11.3591 9.01312L11.2163 9.75325L11.0736 9.01312L11.0051 8.65915L10.8052 8.96046L10.3875 9.59001L10.5409 8.85164L10.6146 8.49883L10.3138 8.70127L9.68495 9.12428L10.1114 8.50059L10.3155 8.2022L9.95925 8.27533L9.2154 8.42804L9.85012 8.0138L10.1533 7.81546L9.79644 7.74759L9.05141 7.606L9.79762 7.46441L10.1545 7.39654L9.85071 7.1982L9.21599 6.78397L9.95984 6.93609L10.3155 7.00922L10.1114 6.71083L9.68436 6.08714L10.3132 6.51073L10.614 6.71317L10.5403 6.36037L10.3869 5.62258L10.8046 6.25213L11.0045 6.55344L11.073 6.19947L11.2163 5.45876ZM11.2163 4.6806L10.9285 6.17139L10.0879 4.90352L10.397 6.39021L9.13045 5.53775L9.98993 6.79391L8.4916 6.48733L9.7699 7.32107L8.26685 7.606L9.7699 7.89152L8.4916 8.72585L9.98993 8.41868L9.13045 9.67426L10.397 8.8218L10.0879 10.3085L10.9285 9.04062L11.2163 10.5314L11.5042 9.04062L12.3454 10.3085L12.0357 8.8218L13.3016 9.67426L12.4421 8.41868L13.941 8.72585L12.6627 7.89152L14.1658 7.606L12.6627 7.32048L13.941 6.48674L12.4421 6.79333L13.3016 5.53716L12.0357 6.38962L12.3454 4.90293L11.5042 6.1708L11.2163 4.6806ZM12.3454 4.90352H12.3483H12.3454ZM13.3016 5.53716H13.3045H13.3016ZM13.941 6.48674H13.944H13.941Z" fill="#843511"/>
<path d="M11.2167 8.77614C11.8682 8.77614 12.3964 8.25224 12.3964 7.60598C12.3964 6.95972 11.8682 6.43582 11.2167 6.43582C10.5651 6.43582 10.0369 6.95972 10.0369 7.60598C10.0369 8.25224 10.5651 8.77614 11.2167 8.77614Z" fill="#FCBF49"/>
<path d="M11.2164 8.8492C10.5251 8.8492 9.96289 8.29162 9.96289 7.6059C9.96289 6.92019 10.5251 6.36261 11.2164 6.36261C11.9078 6.36261 12.4699 6.92019 12.4699 7.6059C12.4699 8.29162 11.9078 8.8492 11.2164 8.8492ZM11.2164 6.50888C10.6065 6.50888 10.1104 7.00093 10.1104 7.6059C10.1104 8.21088 10.6065 8.70293 11.2164 8.70293C11.8264 8.70293 12.3225 8.21088 12.3225 7.6059C12.3225 7.00093 11.8264 6.50888 11.2164 6.50888Z" fill="#843511"/>
<path d="M11.0991 7.47376C11.0991 7.56445 10.9451 7.63759 10.7551 7.63759C10.5646 7.63759 10.4106 7.56445 10.4106 7.47376C10.4106 7.38308 10.5646 7.30994 10.7551 7.30994C10.9451 7.30994 11.0991 7.38308 11.0991 7.47376ZM12.0152 7.45972C12.0152 7.36552 11.8582 7.28888 11.6648 7.28888C11.4713 7.28888 11.3144 7.36494 11.3144 7.45972C11.3144 7.55451 11.4713 7.63057 11.6648 7.63057C11.8588 7.63057 12.0152 7.55392 12.0152 7.45972Z" fill="#C16540"/>
<path d="M10.8997 8.11732C10.8997 8.0436 11.0448 7.98334 11.2229 7.98334C11.4017 7.98334 11.5462 8.04302 11.5462 8.11732C11.5462 8.19104 11.4011 8.2513 11.2229 8.2513C11.0442 8.2513 10.8997 8.19104 10.8997 8.11732Z" fill="#ED8662"/>
</svg>
