<svg width="11" height="11" viewBox="0 0 11 11" fill="none" xmlns="http://www.w3.org/2000/svg">
<g clip-path="url(#clip0_49_47)">
<path d="M10.6667 5.33334V5.33068C10.6667 3.75245 9.97956 2.33512 8.88845 1.36045L8.88311 1.35601C8.86964 1.34148 8.85459 1.32851 8.83822 1.31734L8.83734 1.3169C7.86827 0.466022 6.62205 -0.00206023 5.33245 0.00045281C3.98489 0.00045281 2.75467 0.500897 1.81689 1.32668L1.82267 1.32179C1.81137 1.33036 1.80094 1.34004 1.79156 1.35068V1.35112C1.22779 1.85032 0.776532 2.4636 0.467672 3.15036C0.158811 3.83712 -0.000598617 4.58166 1.68918e-06 5.33468C1.68918e-06 6.91245 0.686224 8.32979 1.77645 9.3049L1.78178 9.30934C1.7959 9.32535 1.81169 9.33981 1.82889 9.35245L1.82978 9.3529C2.7986 10.2025 4.04386 10.6699 5.33245 10.6676C6.62705 10.6696 7.87766 10.1978 8.84845 9.34134L8.84267 9.34623C9.4162 8.84759 9.87595 8.23157 10.1908 7.53986C10.5056 6.84815 10.6682 6.09689 10.6676 5.3369V5.33379L10.6667 5.33334ZM8.68356 8.80223C8.41936 8.58852 8.13524 8.4007 7.83511 8.24134L7.80622 8.22712C8.07867 7.44179 8.24267 6.53645 8.25822 5.59468V5.58756H10.152C10.0881 6.80596 9.56371 7.95458 8.68489 8.8009L8.68356 8.80223ZM5.58756 8.13334C6.15778 8.16401 6.69067 8.28934 7.18222 8.49334L7.15022 8.48179C6.75645 9.37956 6.20222 9.99645 5.58756 10.132V8.13334ZM5.58756 7.6249V5.58756H7.75111C7.73395 6.43123 7.58766 7.2673 7.31734 8.06668L7.33467 8.00845C6.78287 7.78166 6.19599 7.65204 5.6 7.62534L5.588 7.6249H5.58756ZM5.58756 5.07912V3.04179C6.19963 3.01385 6.80221 2.87986 7.36845 2.64579L7.33334 2.65867C7.58 3.37823 7.73156 4.20756 7.75111 5.06979V5.07912H5.58756ZM5.58756 2.53334V0.535564C6.20222 0.671119 6.75645 1.28534 7.15022 2.18579C6.69067 2.3769 6.15778 2.50179 5.60045 2.5329L5.58756 2.53334ZM6.856 0.755564C7.37971 0.930246 7.86951 1.19364 8.304 1.53423L8.29378 1.52623C8.09689 1.6809 7.876 1.82667 7.64311 1.95334L7.61822 1.96579C7.43004 1.52166 7.17129 1.11088 6.852 0.749342L6.856 0.754231V0.755564ZM5.07822 0.536897V2.53334C4.53 2.50537 3.99063 2.38361 3.48356 2.17334L3.51556 2.1849C3.91111 1.28712 4.46445 0.670675 5.07911 0.535119L5.07822 0.536897ZM3.048 1.96445C2.80708 1.83483 2.57753 1.68512 2.36178 1.5169L2.37245 1.5249C2.79428 1.1943 3.26876 0.937075 3.776 0.764008L3.80978 0.753786C3.49885 1.10553 3.2455 1.50424 3.05911 1.93512L3.048 1.96401V1.96445ZM5.07911 3.04134V5.07868H2.91556C2.93511 4.20712 3.08667 3.37779 3.35067 2.60001L3.33334 2.65823C3.88492 2.88466 4.47146 3.01412 5.06711 3.0409L5.07911 3.04134ZM5.07911 5.58712V7.62445C4.46704 7.65239 3.86446 7.78638 3.29822 8.02045L3.33334 8.00756C3.08667 7.28845 2.93511 6.45868 2.91556 5.59645V5.58712H5.07911ZM5.07911 8.1329V10.1307C4.46445 9.99512 3.91022 9.3809 3.51645 8.48045C3.976 8.28934 4.50889 8.1649 5.06622 8.13379L5.07911 8.13334V8.1329ZM3.81245 9.91068C3.28887 9.7365 2.79909 9.47372 2.36445 9.13379L2.37511 9.14179C2.572 8.98712 2.79289 8.84134 3.02578 8.71468L3.05067 8.70223C3.23728 9.14653 3.49603 9.55695 3.81645 9.9169L3.81245 9.91245V9.91068ZM7.61867 8.70179C7.87645 8.84179 8.09734 8.98712 8.30489 9.14934L8.29422 9.14134C7.87239 9.47194 7.39791 9.72917 6.89067 9.90223L6.85689 9.91245C7.16781 9.56087 7.42117 9.16231 7.60756 8.73156L7.61867 8.70268V8.70179ZM10.152 5.07912H8.25822C8.2446 4.15954 8.08591 3.24788 7.788 2.37779L7.80622 2.43912C8.12018 2.27381 8.41742 2.07853 8.69378 1.85601L8.68311 1.86401C9.56012 2.70713 10.0847 3.85149 10.1511 5.06623L10.1516 5.07868L10.152 5.07912ZM1.98311 1.86445C2.23911 2.07245 2.52667 2.26312 2.83156 2.42534L2.86045 2.43956C2.588 3.2249 2.424 4.13023 2.40845 5.07201V5.07912H0.514224C0.578087 3.86072 1.10251 2.7121 1.98134 1.86579L1.98267 1.86445H1.98311ZM0.514668 5.58756H2.40845C2.42207 6.50714 2.58076 7.4188 2.87867 8.2889L2.86045 8.22756C2.52667 8.4049 2.23956 8.59556 1.97289 8.81068L1.98356 8.80268C1.10655 7.95955 0.581941 6.81519 0.515557 5.60045L0.515113 5.58801L0.514668 5.58756Z" fill="white"/>
</g>
<defs>
<clipPath id="clip0_49_47">
<rect width="10.6667" height="10.6667" fill="white"/>
</clipPath>
</defs>
</svg>
