<svg width="28" height="28" viewBox="0 0 28 28" fill="none" xmlns="http://www.w3.org/2000/svg">
<g clip-path="url(#clip0_44_469)">
<path fill-rule="evenodd" clip-rule="evenodd" d="M25.6667 24.5C26.2856 24.5 26.8791 24.2542 27.3167 23.8166C27.7542 23.379 28.0001 22.7855 28.0001 22.1667V5.83333C28.0001 5.21449 27.7542 4.621 27.3167 4.18342C26.8791 3.74583 26.2856 3.5 25.6667 3.5H3.50008C2.88124 3.5 2.28775 3.74583 1.85017 4.18342C1.41258 4.621 1.16675 5.21449 1.16675 5.83333V22.1667C1.16675 22.7855 1.41258 23.379 1.85017 23.8166C2.28775 24.2542 2.88124 24.5 3.50008 24.5H25.6667ZM12.8334 5.83333H10.4826V15.1667H9.31592V22.1667H14.0001V15.1667H12.8334V5.83333ZM21.0176 22.1667H25.6667V5.83333H22.1842V15.1667H21.0176V22.1667ZM19.8509 15.1667H18.6842V5.83333H16.3334V15.1667H15.1667V22.1667H19.8509V15.1667ZM8.14925 22.1667V15.1667H6.98258V5.83333H3.50008V22.1667H8.14925Z" fill="white"/>
</g>
<defs>
<clipPath id="clip0_44_469">
<rect width="28" height="28" fill="white"/>
</clipPath>
</defs>
</svg>
