<svg width="25" height="25" viewBox="0 0 25 25" fill="none" xmlns="http://www.w3.org/2000/svg">
<path d="M18.7615 1.62803L18.7404 1.63897C17.8357 1.83819 17.0201 2.41631 16.6037 3.27647C16.2365 4.03428 15.7208 4.58115 15.1115 5.19834L5.46304 14.8155L5.38804 14.8913C4.76304 15.5241 4.39194 15.9007 3.5646 16.2765C1.97085 16.9952 1.43179 18.3233 1.58804 19.5655C1.59819 19.6452 1.61148 19.7257 1.62944 19.8054C1.44507 20.8757 1.53023 22.1663 2.57241 23.2085C3.24976 23.8858 4.33179 24.2452 5.49429 24.2452H5.5021L6.29898 24.2296H6.30601C8.22788 24.1546 9.99194 23.4476 11.4388 22.2429C11.7322 22.526 12.1246 22.6833 12.5324 22.681C12.9401 22.6788 13.3308 22.5173 13.6211 22.231C13.9114 21.9447 14.0782 21.5563 14.0861 21.1486C14.0939 20.741 13.9421 20.3464 13.663 20.0491L19.2177 14.4124C19.3639 14.5564 19.5371 14.6702 19.7272 14.7473C19.9174 14.8244 20.1209 14.8632 20.3261 14.8617C20.5313 14.8601 20.7342 14.8181 20.9231 14.7382C21.1121 14.6582 21.2835 14.5418 21.4275 14.3956C21.5715 14.2494 21.6853 14.0763 21.7624 13.8861C21.8394 13.6959 21.8783 13.4924 21.8767 13.2872C21.8752 13.0821 21.8332 12.8792 21.7533 12.6902C21.6733 12.5012 21.5569 12.3298 21.4107 12.1858L21.5435 12.0515C23.1919 10.3765 24.2443 7.85225 24.2443 5.49522C24.2443 4.41944 24.0521 2.84365 22.3279 1.71631C21.9427 1.46397 21.481 1.37256 21.0951 1.33975C20.711 1.31113 20.3251 1.32002 19.9427 1.36631C19.5974 1.40537 19.2912 1.46553 19.0857 1.51787C19.0091 1.5374 18.8732 1.57256 18.763 1.62725L18.7615 1.62803ZM3.12476 22.6562C2.73568 22.2722 2.47644 21.7761 2.38335 21.2374C3.12632 22.0983 4.2896 22.7163 5.49429 22.6671L5.86148 22.6749C7.8771 22.5968 9.45523 22.0577 10.8771 20.6202L20.4005 10.6749C21.9396 9.1124 22.7599 6.9874 22.674 4.7999C22.6567 4.27712 22.519 3.76539 22.2714 3.30463C22.0238 2.84387 21.6731 2.44655 21.2466 2.14365C21.4951 2.18272 21.7232 2.25381 21.9005 2.37022C23.299 3.28428 23.463 4.52647 23.463 5.49522C23.463 7.64365 22.4943 9.97178 20.9865 11.503L11.5412 21.089L11.5076 21.1226C11.3636 21.2667 11.2146 21.4056 11.0607 21.539C9.71694 22.7022 8.07085 23.3788 6.27554 23.4483L5.49429 23.464C4.47085 23.464 3.61382 23.1452 3.12476 22.6562ZM16.0412 7.04209C15.9376 7.04209 15.8382 7.00094 15.7649 6.92768C15.6917 6.85442 15.6505 6.75507 15.6505 6.65147C15.6505 6.54787 15.6917 6.44851 15.7649 6.37525C15.8382 6.302 15.9376 6.26084 16.0412 6.26084C16.1448 6.26084 16.2441 6.302 16.3174 6.37525C16.3906 6.44851 16.4318 6.54787 16.4318 6.65147C16.4318 6.75507 16.3906 6.85442 16.3174 6.92768C16.2441 7.00094 16.1448 7.04209 16.0412 7.04209ZM18.3849 9.40147C18.2813 9.40147 18.182 9.36031 18.1087 9.28706C18.0354 9.2138 17.9943 9.11444 17.9943 9.01084C17.9943 8.90724 18.0354 8.80788 18.1087 8.73463C18.182 8.66137 18.2813 8.62022 18.3849 8.62022C18.4885 8.62022 18.5879 8.66137 18.6611 8.73463C18.7344 8.80788 18.7755 8.90724 18.7755 9.01084C18.7755 9.11444 18.7344 9.2138 18.6611 9.28706C18.5879 9.36031 18.4885 9.40147 18.3849 9.40147ZM14.8693 8.21397C14.8693 8.31757 14.8281 8.41692 14.7549 8.49018C14.6816 8.56344 14.5823 8.60459 14.4787 8.60459C14.3751 8.60459 14.2757 8.56344 14.2024 8.49018C14.1292 8.41692 14.088 8.31757 14.088 8.21397C14.088 8.11037 14.1292 8.01101 14.2024 7.93775C14.2757 7.8645 14.3751 7.82334 14.4787 7.82334C14.5823 7.82334 14.6816 7.8645 14.7549 7.93775C14.8281 8.01101 14.8693 8.11037 14.8693 8.21397ZM16.8224 10.964C16.7188 10.964 16.6195 10.9228 16.5462 10.8496C16.4729 10.7763 16.4318 10.6769 16.4318 10.5733C16.4318 10.4697 16.4729 10.3704 16.5462 10.2971C16.6195 10.2239 16.7188 10.1827 16.8224 10.1827C16.926 10.1827 17.0254 10.2239 17.0986 10.2971C17.1719 10.3704 17.213 10.4697 17.213 10.5733C17.213 10.6769 17.1719 10.7763 17.0986 10.8496C17.0254 10.9228 16.926 10.964 16.8224 10.964ZM8.61929 14.4796C8.61929 14.5832 8.57813 14.6826 8.50488 14.7558C8.43162 14.8291 8.33226 14.8702 8.22866 14.8702C8.12506 14.8702 8.02571 14.8291 7.95245 14.7558C7.87919 14.6826 7.83804 14.5832 7.83804 14.4796C7.83804 14.376 7.87919 14.2766 7.95245 14.2034C8.02571 14.1301 8.12506 14.089 8.22866 14.089C8.33226 14.089 8.43162 14.1301 8.50488 14.2034C8.57813 14.2766 8.61929 14.376 8.61929 14.4796ZM10.5724 17.214C10.4688 17.214 10.3695 17.1728 10.2962 17.0996C10.2229 17.0263 10.1818 16.9269 10.1818 16.8233C10.1818 16.7197 10.2229 16.6204 10.2962 16.5471C10.3695 16.4739 10.4688 16.4327 10.5724 16.4327C10.676 16.4327 10.7754 16.4739 10.8486 16.5471C10.9219 16.6204 10.963 16.7197 10.963 16.8233C10.963 16.9269 10.9219 17.0263 10.8486 17.0996C10.7754 17.1728 10.676 17.214 10.5724 17.214ZM7.05679 16.0421C7.05679 16.1457 7.01563 16.245 6.94238 16.3183C6.86912 16.3916 6.76976 16.4327 6.66616 16.4327C6.56256 16.4327 6.46321 16.3916 6.38995 16.3183C6.31669 16.245 6.27554 16.1457 6.27554 16.0421C6.27554 15.9385 6.31669 15.8391 6.38995 15.7659C6.46321 15.6926 6.56256 15.6515 6.66616 15.6515C6.76976 15.6515 6.86912 15.6926 6.94238 15.7659C7.01563 15.8391 7.05679 15.9385 7.05679 16.0421ZM9.00991 18.7765C8.90631 18.7765 8.80696 18.7353 8.7337 18.6621C8.66044 18.5888 8.61929 18.4894 8.61929 18.3858C8.61929 18.2822 8.66044 18.1829 8.7337 18.1096C8.80696 18.0364 8.90631 17.9952 9.00991 17.9952C9.11351 17.9952 9.21287 18.0364 9.28613 18.1096C9.35938 18.1829 9.40054 18.2822 9.40054 18.3858C9.40054 18.4894 9.35938 18.5888 9.28613 18.6621C9.21287 18.7353 9.11351 18.7765 9.00991 18.7765Z" fill="white"/>
</svg>
